HIERARCHY
ROOT Hips
{
 OFFSET 0.000000 0.000000 0.000000
 CHANNELS 6 Xposition Yposition Zposition Yrotation Xrotation Zrotation
 JOINT Chest
 {
  OFFSET 0.000000 9.585900 0.002600
  CHANNELS 3 Yrotation Xrotation Zrotation
  JOINT Chest2
  {
   OFFSET 0.000000 9.601200 -0.005300
   CHANNELS 3 Yrotation Xrotation Zrotation
   JOINT Chest3
   {
    OFFSET 0.000000 9.561800 0.000000
    CHANNELS 3 Yrotation Xrotation Zrotation
    JOINT Chest4
    {
     OFFSET 0.000000 9.552100 0.000000
     CHANNELS 3 Yrotation Xrotation Zrotation
     JOINT Neck
     {
      OFFSET 0.000000 14.453000 0.000000
      CHANNELS 3 Yrotation Xrotation Zrotation
      JOINT Head
      {
       OFFSET 0.000000 8.936500 -0.011300
       CHANNELS 3 Yrotation Xrotation Zrotation
       End Site
       {
        OFFSET 0.000000 17.073600 -0.006000
       }
      }
     }
     JOINT RightCollar
     {
      OFFSET -2.921100 9.558500 0.000000
      CHANNELS 3 Yrotation Xrotation Zrotation
      JOINT RightShoulder
      {
       OFFSET -13.519700 0.000000 0.000000
       CHANNELS 3 Yrotation Xrotation Zrotation
       JOINT RightElbow
       {
        OFFSET 0.000000 -29.696600 0.000000
        CHANNELS 3 Yrotation Xrotation Zrotation
        JOINT RightWrist
        {
         OFFSET 0.000000 -24.004700 0.000000
         CHANNELS 3 Yrotation Xrotation Zrotation
         End Site
         {
          OFFSET 0.000000 -17.728500 0.000000
         }
        }
       }
      }
     }
     JOINT LeftCollar
     {
      OFFSET 2.921100 9.558500 0.000000
      CHANNELS 3 Yrotation Xrotation Zrotation
      JOINT LeftShoulder
      {
       OFFSET 13.519700 0.000000 0.000000
       CHANNELS 3 Yrotation Xrotation Zrotation
       JOINT LeftElbow
       {
        OFFSET 0.000000 -29.696600 0.000000
        CHANNELS 3 Yrotation Xrotation Zrotation
        JOINT LeftWrist
        {
         OFFSET 0.000000 -24.004700 0.000000
         CHANNELS 3 Yrotation Xrotation Zrotation
         End Site
         {
          OFFSET 0.000000 -17.728500 0.000000
         }
        }
       }
      }
     }
    }
   }
  }
 }
 JOINT RightHip
 {
  OFFSET -7.771700 -0.012900 -0.001300
  CHANNELS 3 Yrotation Xrotation Zrotation
  JOINT RightKnee
  {
   OFFSET 0.000000 -40.869800 0.001200
   CHANNELS 3 Yrotation Xrotation Zrotation
   JOINT RightAnkle
   {
    OFFSET 0.000000 -39.717900 0.002100
    CHANNELS 3 Yrotation Xrotation Zrotation
    JOINT RightToe
    {
     OFFSET 0.000000 -4.965400 11.033500
     CHANNELS 3 Yrotation Xrotation Zrotation
     End Site
     {
      OFFSET 0.000000 -1.423100 5.872300
     }
    }
   }
  }
 }
 JOINT LeftHip
 {
  OFFSET 7.771700 -0.012900 -0.001300
  CHANNELS 3 Yrotation Xrotation Zrotation
  JOINT LeftKnee
  {
   OFFSET 0.000000 -40.869800 0.001200
   CHANNELS 3 Yrotation Xrotation Zrotation
   JOINT LeftAnkle
   {
    OFFSET 0.000000 -39.717900 0.002100
    CHANNELS 3 Yrotation Xrotation Zrotation
    JOINT LeftToe
    {
     OFFSET 0.000000 -4.965400 11.033500
     CHANNELS 3 Yrotation Xrotation Zrotation
     End Site
     {
      OFFSET 0.000000 -1.423100 5.872300
     }
    }
   }
  }
 }
}
MOTION
Frames: 15
Frame Time: 0.008333
0.000000 85.388000 0.000000 0.000000 -5.767877 0.000000 0.000000 11.653817 0.000000 0.000000 -5.885947 0.000000 0.000000 -0.000000 0.000000 0.000000 -0.000000 0.000000 0.000000 12.528835 0.000000 0.000000 0.711642 0.000000 0.000000 -0.000000 0.000000 0.000000 0.000000 -90.000000 0.000000 -2.309062 0.000000 0.000000 2.309062 0.000000 0.000000 -0.000000 0.000000 0.000000 -0.000000 90.000000 0.000000 -2.309062 0.000000 0.000000 2.309062 0.000000 0.000000 8.520406 0.000000 0.000000 1.905762 0.000000 -0.000000 -4.658285 0.000000 0.000000 -0.000000 0.000000 0.000000 8.520406 0.000000 0.000000 1.905762 0.000000 -0.000000 -4.658285 0.000000 0.000000 -0.000000 0.000000
-142.994968 49.162078 18.603769 173.546108 -30.224382 -3.573186 -0.375371 18.654863 2.378707 -0.056462 2.176050 0.236550 -0.085660 3.602287 0.404092 -0.186510 16.283039 1.823699 4.836168 14.717261 -4.404923 10.673490 -7.820420 -10.042095 -1.499673 -4.761631 -4.659318 6.525827 -7.050827 -12.476736 -35.168168 -40.736278 88.250491 2.233912 2.360248 -8.833580 1.054955 -4.131610 3.501829 -7.424816 -0.841757 11.900595 72.317584 -69.756297 -112.097580 3.382529 9.795625 5.674097 -8.299797 -54.561027 -3.494644 -152.249105 84.965705 -138.994975 -30.577028 -2.475468 -6.084675 -0.007848 -12.771463 -0.800528 -15.522832 -55.867824 21.703978 -76.530368 66.100936 -80.512800 30.411553 6.214652 14.127331 0.118480 -0.385885 0.055903
-142.994275 49.163137 18.602935 173.530231 -30.234461 -3.569031 -0.361347 18.658958 2.373652 -0.055499 2.178933 0.240540 -0.085843 3.600540 0.398728 -0.184454 16.283408 1.819551 4.835289 14.735999 -4.389184 10.644906 -7.770519 -10.009279 -1.511367 -4.761103 -4.662041 6.530833 -7.053047 -12.463982 -35.158757 -40.753437 88.226129 2.227659 2.356993 -8.830974 1.053563 -4.125384 3.504528 -7.440585 -0.867837 11.897725 72.268919 -69.744427 -112.048573 3.380220 9.792573 5.681168 -8.287214 -54.553013 -3.495705 -152.352871 84.971129 -139.095294 -30.568403 -2.466314 -6.094581 -0.037778 -12.780046 -0.790695 -15.511690 -55.858042 21.711553 -76.539904 66.101297 -80.532844 30.421192 6.203728 14.135970 0.107303 -0.385810 0.054345
-142.992532 49.163864 18.602927 173.513209 -30.239341 -3.570370 -0.344517 18.658584 2.374677 -0.054712 2.181199 0.244640 -0.085249 3.600844 0.398475 -0.185202 16.281297 1.808610 4.814434 14.775741 -4.380616 10.635902 -7.751835 -9.984364 -1.512377 -4.756747 -4.649634 6.517082 -7.057391 -12.478019 -35.150342 -40.768301 88.211473 2.207868 2.352808 -8.807926 1.053490 -4.120414 3.516779 -7.460197 -0.889609 11.887724 72.234839 -69.734519 -112.011231 3.376868 9.793166 5.686642 -8.278892 -54.548271 -3.495575 -152.520542 84.978087 -139.252059 -30.544972 -2.457813 -6.111371 -0.001141 -12.788919 -0.796253 -15.514753 -55.850986 21.742773 -76.549767 66.091816 -80.554352 30.419863 6.195951 14.141298 0.110979 -0.383086 0.052836
-142.990062 49.164634 18.602900 173.496560 -30.244015 -3.575140 -0.326271 18.660136 2.381205 -0.059710 2.178528 0.233423 -0.078117 3.604299 0.411795 -0.187241 16.279661 1.801767 4.801675 14.797405 -4.373089 10.614804 -7.712613 -9.957027 -1.516351 -4.751531 -4.653261 6.505634 -7.062034 -12.475828 -35.155918 -40.782204 88.201918 2.204801 2.366983 -8.806197 1.045195 -4.115471 3.514341 -7.461477 -0.898300 11.895243 72.242398 -69.725916 -112.026914 3.375858 9.803066 5.703942 -8.283474 -54.540790 -3.483816 -152.633718 84.984572 -139.358058 -30.514098 -2.450951 -6.131314 0.023166 -12.796606 -0.797277 -15.520786 -55.843272 21.777173 -76.559052 66.082511 -80.574302 30.422368 6.186251 14.149557 0.107967 -0.380158 0.050859
-142.988309 49.165177 18.602856 173.486321 -30.246419 -3.577327 -0.318828 18.661056 2.379046 -0.061795 2.177256 0.233001 -0.075877 3.603900 0.410306 -0.193696 16.277879 1.794688 4.807234 14.811047 -4.360547 10.582446 -7.660810 -9.925971 -1.510637 -4.745446 -4.652102 6.494206 -7.066935 -12.474093 -35.150994 -40.790464 88.189783 2.204695 2.367156 -8.814773 1.045474 -4.109828 3.518281 -7.462765 -0.905615 11.898915 72.267365 -69.723840 -112.060484 3.379511 9.812051 5.703077 -8.315603 -54.536006 -3.467497 -152.790324 84.993284 -139.518153 -30.485656 -2.444375 -6.150634 0.016603 -12.809238 -0.795870 -15.520872 -55.839888 21.793087 -76.563504 66.078285 -80.580290 30.425613 6.183482 14.153499 0.105521 -0.379166 0.048243
-142.987880 49.166071 18.601511 173.477057 -30.254856 -3.569098 -0.321981 18.665584 2.359394 -0.054139 2.180056 0.242158 -0.084448 3.600571 0.399246 -0.198620 16.276458 1.788495 4.817018 14.826244 -4.347079 10.550369 -7.607224 -9.894444 -1.505598 -4.739153 -4.649761 6.493291 -7.070413 -12.475440 -35.168673 -40.789908 88.169167 2.203044 2.375776 -8.799782 1.015716 -4.094128 3.515582 -7.439952 -0.919613 11.906386 72.299583 -69.732620 -112.087462 3.382559 9.820692 5.701568 -8.323626 -54.529107 -3.467978 -152.845000 84.996567 -139.573374 -30.509258 -2.442699 -6.153816 0.014258 -12.820460 -0.796703 -15.503790 -55.834145 21.785925 -76.567085 66.074682 -80.591623 30.438586 6.181312 14.171812 0.094401 -0.382453 0.039376
-142.987313 49.167026 18.599616 173.474524 -30.265195 -3.561839 -0.332254 18.674730 2.341708 -0.053971 2.179371 0.241554 -0.084411 3.599759 0.398035 -0.203463 16.275234 1.783507 4.792881 14.866582 -4.337575 10.548551 -7.579934 -9.880068 -1.504028 -4.732810 -4.653155 6.483123 -7.074809 -12.488850 -35.172951 -40.774365 88.190737 2.202112 2.363097 -8.817652 1.004161 -4.089511 3.516583 -7.449162 -0.923348 11.902643 72.335031 -69.742551 -112.098306 3.370284 9.832225 5.685994 -8.339962 -54.519393 -3.463840 -152.877468 85.000061 -139.613351 -30.547647 -2.444918 -6.146788 0.012112 -12.828148 -0.800882 -15.488625 -55.826405 21.772194 -76.569365 66.072268 -80.598131 30.449420 6.180628 14.182154 0.085395 -0.385826 0.034160
-142.984764 49.168097 18.597461 173.465038 -30.277970 -3.559210 -0.332230 18.681028 2.333199 -0.054725 2.179741 0.241023 -0.085424 3.600244 0.397092 -0.208613 16.278697 1.777291 4.806742 14.873728 -4.327785 10.511671 -7.524501 -9.852837 -1.492892 -4.730808 -4.657016 6.484484 -7.075845 -12.479518 -35.175192 -40.769903 88.190925 2.191355 2.341499 -8.842411 1.000760 -4.089561 3.520018 -7.463840 -0.923060 11.894041 72.341806 -69.754755 -112.072973 3.346528 9.830497 5.653514 -8.363057 -54.501973 -3.452879 -152.932922 85.004003 -139.665502 -30.559396 -2.461953 -6.160744 0.020222 -12.828046 -0.799879 -15.479911 -55.817169 21.773356 -76.591582 66.073576 -80.627235 30.461043 6.171609 14.192887 0.072687 -0.388561 0.028737
-142.980834 49.168796 18.595755 173.458989 -30.287221 -3.563088 -0.346772 18.684750 2.314268 -0.052679 2.180441 0.242221 -0.078101 3.600215 0.403296 -0.209066 16.286238 1.772722 4.797212 14.890573 -4.318671 10.517318 -7.514843 -9.848552 -1.500390 -4.742229 -4.663911 6.490685 -7.068698 -12.470528 -35.173030 -40.763649 88.202789 2.181532 2.321540 -8.854489 1.009706 -4.092314 3.528208 -7.489047 -0.922985 11.882002 72.409978 -69.772241 -112.120870 3.327907 9.851264 5.637168 -8.396766 -54.487693 -3.436527 -153.099965 85.009600 -139.828494 -30.548212 -2.473009 -6.180941 0.019831 -12.834028 -0.797411 -15.479060 -55.809636 21.781738 -76.608222 66.076118 -80.644980 30.468289 6.165128 14.201335 0.065591 -0.388488 0.024853
-142.973594 49.169489 18.594514 173.435658 -30.296222 -3.574858 -0.326076 18.693008 2.329266 -0.058746 2.180998 0.237721 -0.074344 3.601536 0.404688 -0.214785 16.287124 1.767382 4.794167 14.910779 -4.312481 10.483697 -7.475043 -9.825470 -1.500182 -4.748574 -4.661002 6.480358 -7.067720 -12.475706 -35.171799 -40.750770 88.218332 2.164927 2.283139 -8.857704 0.995529 -4.101818 3.533519 -7.489165 -0.917057 11.873574 72.467642 -69.785975 -112.163938 3.313128 9.869427 5.626014 -8.440841 -54.468660 -3.398044 -153.203155 85.016239 -139.908285 -30.538174 -2.494992 -6.222460 0.033493 -12.838532 -0.792931 -15.479828 -55.798671 21.820163 -76.639212 66.070964 -80.672464 30.470769 6.152840 14.204214 0.062081 -0.385055 0.023206
-142.968907 49.169934 18.592948 173.426454 -30.303449 -3.575908 -0.318403 18.699824 2.331865 -0.069156 2.180281 0.232463 -0.084254 3.603165 0.394995 -0.210703 16.285372 1.770007 4.789567 14.932307 -4.309151 10.455033 -7.440693 -9.806313 -1.499818 -4.749889 -4.656192 6.489520 -7.067950 -12.479421 -35.182893 -40.742652 88.215976 2.150843 2.254276 -8.845975 0.986791 -4.108273 3.537933 -7.486905 -0.908434 11.866018 72.561285 -69.809798 -112.279456 3.300634 9.886111 5.627790 -8.464750 -54.458676 -3.384091 -153.228135 85.015677 -139.925062 -30.535376 -2.500384 -6.238900 0.038736 -12.848661 -0.794213 -15.474369 -55.791535 21.827527 -76.654485 66.070260 -80.686412 30.476089 6.145842 14.210769 0.057277 -0.383381 0.017822
-142.964170 49.170112 18.592084 173.411300 -30.306479 -3.573861 -0.315587 18.701702 2.327839 -0.064361 2.180459 0.235013 -0.080656 3.603592 0.396294 -0.231440 16.281052 1.760809 4.782870 14.951709 -4.307420 10.443389 -7.417655 -9.797507 -1.500321 -4.744770 -4.651330 6.503478 -7.070720 -12.484870 -35.196253 -40.743073 88.220811 2.141698 2.249203 -8.836852 0.977309 -4.108317 3.542235 -7.484670 -0.906469 11.864136 72.603328 -69.815335 -112.330708 3.313809 9.894323 5.665064 -8.467536 -54.454301 -3.377852 -153.263151 85.012875 -139.952699 -30.498112 -2.501230 -6.259398 0.049578 -12.854043 -0.793134 -15.467753 -55.788114 21.837051 -76.668927 66.072916 -80.700799 30.480117 6.135082 14.213432 0.050153 -0.379758 0.014945
-142.960043 49.171094 18.590354 173.388636 -30.316620 -3.564755 -0.309852 18.710214 2.318905 -0.057505 2.180508 0.237973 -0.090154 3.601185 0.392033 -0.224259 16.281798 1.762740 4.763478 14.963990 -4.307887 10.434569 -7.394062 -9.789419 -1.512576 -4.737977 -4.648664 6.523318 -7.076634 -12.487092 -35.205553 -40.744876 88.222287 2.135885 2.239291 -8.835083 0.947140 -4.111773 3.545719 -7.474424 -0.906791 11.863735 72.617008 -69.815620 -112.345420 3.312322 9.885533 5.676578 -8.481916 -54.445478 -3.360417 -153.357759 85.013905 -140.058880 -30.458745 -2.495783 -6.270441 0.039877 -12.862363 -0.795112 -15.448657 -55.778393 21.839074 -76.696415 66.071338 -80.732550 30.488881 6.115762 14.217324 0.042409 -0.374248 0.012038
-142.957397 49.171243 18.590763 173.378436 -30.312406 -3.557347 -0.309671 18.704771 2.311722 -0.072970 2.180623 0.231783 -0.085081 3.598995 0.393507 -0.215324 16.282483 1.764427 4.747390 14.975155 -4.306932 10.422196 -7.372675 -9.780540 -1.524504 -4.730074 -4.647950 6.504504 -7.085206 -12.498813 -35.195152 -40.744450 88.245692 2.137946 2.213845 -8.832126 0.941112 -4.112900 3.543244 -7.527434 -0.923541 11.889035 72.612141 -69.793719 -112.306937 3.319053 9.874747 5.685414 -8.495897 -54.449255 -3.356855 -153.411812 85.016465 -140.110112 -30.439338 -2.501189 -6.287155 0.019457 -12.866024 -0.791295 -15.448261 -55.782368 21.843917 -76.693759 66.072715 -80.735906 30.498220 6.113908 14.221476 0.031984 -0.374444 0.011417
